inDegrees=no
num_controls=7
num_derivatives=13
num_iterations=119
num_multipliers=7
num_parameters=0
num_slacks=7
num_states=26
objective=0.445962
objective_accelerations=0.056731
objective_balance=0.003510
objective_effort=0.022684
objective_height=0.357487
objective_ligament=0.005550
solver_duration=1609.025084
status=Solve_Succeeded
success=true
DataType=double
version=3
OpenSimVersion=4.5
endheader
time	/jointset/ground_pelvis/pelvis_tilt/value	/jointset/ground_pelvis/pelvis_tx/value	/jointset/ground_pelvis/pelvis_ty/value	/jointset/hip_l/hip_flexion_l/value	/jointset/hip_l/hip_adduction_l/value	/jointset/hip_l/hip_rotation_l/value	/jointset/back/lumbar_extension/value	/jointset/patellofemoral_l/patellar_flexion_l/value	/jointset/knee_l/knee_flexion_l/value	/jointset/knee_l/knee_adduction_l/value	/jointset/knee_l/knee_rotation_l/value	/jointset/ankle_l/ankle_angle_l/value	/jointset/subtalar_l/subtalar_angle_l/value	/jointset/ground_pelvis/pelvis_tilt/speed	/jointset/ground_pelvis/pelvis_tx/speed	/jointset/ground_pelvis/pelvis_ty/speed	/jointset/hip_l/hip_flexion_l/speed	/jointset/hip_l/hip_adduction_l/speed	/jointset/hip_l/hip_rotation_l/speed	/jointset/back/lumbar_extension/speed	/jointset/patellofemoral_l/patellar_flexion_l/speed	/jointset/knee_l/knee_flexion_l/speed	/jointset/knee_l/knee_adduction_l/speed	/jointset/knee_l/knee_rotation_l/speed	/jointset/ankle_l/ankle_angle_l/speed	/jointset/subtalar_l/subtalar_angle_l/speed	/forceset/tau_hip_flexion_l	/forceset/tau_hip_adduction_l	/forceset/tau_hip_rotation_l	/forceset/tau_knee_flexion_l	/forceset/tau_ankle_angle_l	/forceset/tau_subtalar_angle_l	/forceset/tau_lumbar_extension	lambda_cid13_p0	lambda_cid13_p1	lambda_cid13_p2	lambda_cid13_p3	lambda_cid13_p4	lambda_cid13_p5	lambda_cid14_p0	/jointset/ground_pelvis/pelvis_tilt/accel	/jointset/ground_pelvis/pelvis_tx/accel	/jointset/ground_pelvis/pelvis_ty/accel	/jointset/hip_l/hip_flexion_l/accel	/jointset/hip_l/hip_adduction_l/accel	/jointset/hip_l/hip_rotation_l/accel	/jointset/back/lumbar_extension/accel	/jointset/patellofemoral_l/patellar_flexion_l/accel	/jointset/knee_l/knee_flexion_l/accel	/jointset/knee_l/knee_adduction_l/accel	/jointset/knee_l/knee_rotation_l/accel	/jointset/ankle_l/ankle_angle_l/accel	/jointset/subtalar_l/subtalar_angle_l/accel	gamma_cid13_p0	gamma_cid13_p1	gamma_cid13_p2	gamma_cid13_p3	gamma_cid13_p4	gamma_cid13_p5	gamma_cid14_p0
1.5	-0.363968358735306	-0.02198013088022078	0.7645870544113493	1.092010306688757	-0.4345404898893422	-0.2147790135770865	-0.2252601964047601	0.7934448937952648	0.7934448937952354	-0.1341043091892856	-0.1448466541087391	0.1260295489014945	-0.01994713695953896	0.6710060296894282	0.2715289347416873	0.5213156261610348	-2.422863467376619	0.2108740508454182	-0.7087752918680639	0.3147343346093593	-1.986770432748979	-1.986770432749174	-0.1220321898953351	0.1358958988483847	-0.39590074222025	0.03961661492548254	-0.1739080259765993	0.02997242080698535	-0.007775111763711322	-0.2017937774433615	0.04119010316849638	0.0425836151901929	0.1681364561288899	-19.00860557674755	-18.12179805478176	5.929659490726727	-7.304980793348034	-521.2324733835285	-61.26460606786769	-25.4718902735509	0.6408986425642339	0.6968829234996136	-0.500054292240659	-1.287509671288229	0.7039215997324443	-0.1854881738376824	1.511090784280951	-1.308464522402854	-1.308464522402844	0.1359365933059713	0.2275356394206975	-0.4646848291407622	0.5241486853747256	4.822752548071826e-07	5.039036132340458e-07	-2.748922749761995e-06	-9.004753541056942e-08	6.854947813758872e-07	9.086632449768184e-09	4.455972170498926e-07
1.51	-0.3572263312913032	-0.01923022314005228	0.7697741832712208	1.067718929626221	-0.432398053857218	-0.221874619145876	-0.222038461969422	0.773514036756124	0.7735140367561382	-0.1353209863865242	-0.1434774804080559	0.122047552148316	-0.01952651295415361	0.6773016740066109	0.2784211780178772	0.516000613991104	-2.435081270791326	0.217590349937227	-0.7102210624493663	0.3295887510001487	-1.999127654513043	-1.999127654513333	-0.1213178146123245	0.1379454040632017	-0.4004255511039719	0.04451287487309157	-0.1680278875829591	0.02905952994549904	-0.007438044472871957	-0.198998375464572	0.04124141006253716	0.04189305238277063	0.1633780106674587	-18.78424470164094	-17.86843727824757	5.897566558324201	-7.200805324442471	-517.4061772475092	-61.48362955214008	-26.36849823574378	0.6092520462445432	0.6807062916505521	-0.5635410648638016	-1.139283407795235	0.6521187417747918	-0.1050563521877596	1.46904684771938	-1.158430379397895	-1.158430379412221	0.03714092434180807	0.1942941784232091	-0.4353878707859877	0.4730688257223392	4.240955985923407e-07	9.439712284542995e-07	-1.997120318752561e-06	5.700898400574513e-08	6.072480723589092e-07	1.132001486786448e-07	4.07123903494402e-07
1.52	-0.3504242764601398	-0.01641233071472757	0.7749048987322943	1.043315300983293	-0.4301891278986008	-0.2289808693908608	-0.2186688974139275	0.7534677916241476	0.753467791624199	-0.1365309292452294	-0.1420876844120372	0.1180225055157408	-0.01905678551403846	0.6830115071217683	0.2851258717729284	0.5100329464013902	-2.445313783455368	0.2241720361438224	-0.7109042271071172	0.3443003586405992	-2.009848051316697	-2.009848051317084	-0.1206853221875848	0.1400203579144591	-0.4045107180996168	0.04943730187143507	-0.1621477491893	0.02814663908401692	-0.007100977182067179	-0.1962029734857784	0.04129271695657804	0.04120248957535317	0.1586195652060443	-18.56289302264444	-17.61759662636305	5.86935702215911	-7.129359771340956	-513.6436020907412	-61.75253441784533	-27.26520514222079	0.5237364021591518	0.6593730192718945	-0.6305853761972791	-0.8904515211555328	0.6769990226897781	-0.03296698912734019	1.482529034213126	-0.9810995303211781	-0.9810995303211841	0.1195600216517826	0.2326253667087729	-0.3767564515253241	0.5297820955216139	3.991172277467263e-07	1.2470132545104e-06	-1.579857306053364e-06	1.456892173633264e-07	5.858102720868269e-07	1.975079670020474e-07	3.913196472730616e-07
1.53	-0.3435680248230257	-0.01352845882879644	0.7799727241752604	1.018819269237762	-0.4279152170206936	-0.2360909439588908	-0.215153524887483	0.7333226203379043	0.7333226203379148	-0.1377347133385833	-0.1406776690364835	0.1139587207154697	-0.01853788237999153	0.6881301948793743	0.2916027718707829	0.5034244126093246	-2.453528992305878	0.2305791040661518	-0.7110139488051971	0.3587055783958957	-2.018886031032559	-2.018886031032653	-0.1200666809845018	0.1419606660994765	-0.4081723226169726	0.05433998917790005	-0.1558763877324463	0.02711050220404817	-0.00679439240354534	-0.1937713665746244	0.0417749644766661	0.0401337787627054	0.1534786732544081	-18.21342414882211	-17.21576738958462	5.806576015358881	-6.979536436651246	-509.8035809000004	-61.75213945209073	-28.16230485149811	0.4896536064541643	0.6350257966308074	-0.6920177043287196	-0.732497698289621	0.6179002915608754	0.01490618130740336	1.409233208281342	-0.8202017642850029	-0.8202017642411512	0.03392833880651232	0.171093636787634	-0.3497276221574759	0.4699468669032296	4.094152226059155e-07	1.404465592079588e-06	-1.518042425308788e-06	1.723446467835043e-07	6.247319373561955e-07	2.60772231300884e-07	3.996012644692556e-07
1.54	-0.3366638425795582	-0.01058118248356912	0.7849712582155822	0.9942519969774678	-0.4255781675406515	-0.2431991395556107	-0.2114961572110665	0.7130960583400893	0.7130960583400607	-0.1389321285860662	-0.139248978560609	0.1098605468359615	-0.01797006540914106	0.6925976283926996	0.2978067636321688	0.4961746658725574	-2.459561886408023	0.2367997565707353	-0.7105284328450485	0.3726993886349328	-2.026126193631076	-2.026126193630879	-0.1194115530146207	0.143755377980071	-0.4113885339469991	0.05922006923213717	-0.1496050262755756	0.0260743653240811	-0.006487807624974746	-0.1913397596634753	0.04225721199675213	0.03906506795005805	0.1483377813027893	-17.86502702920552	-16.81754245204586	5.748701932993029	-6.869150650640726	-505.9947366557329	-61.79941676752694	-29.06074531701327	0.3934855533029526	0.6047913519781705	-0.7588279651376202	-0.4539885714827755	0.6397159391405854	0.08608054251835433	1.400247130961224	-0.6215361068524514	-0.6215361068524672	0.1268573750113969	0.2035061058241825	-0.2876778140594827	0.5252606450760393	4.019141715200227e-07	1.515634272885188e-06	-1.419450407561595e-06	2.013156366943852e-07	6.292816965159098e-07	3.097385957765932e-07	3.967969068932924e-07
